<mxfile host="drawio-plugin" modified="2021-04-25T14:10:47.980Z" agent="5.0 (Windows NT 6.2; Win64; x64) AppleWebKit/537.36 (KHTML, like Gecko) Chrome/87.0.4280.141 Safari/537.36" etag="2ldE8dXLgLpqIQuIQ_Vr" version="13.7.9" type="embed"><diagram id="aEt7ZsYlj5u2rwXem_LO" name="Page-1"><mxGraphModel dx="595" dy="415" grid="1" gridSize="10" guides="1" tooltips="1" connect="1" arrows="1" fold="1" page="1" pageScale="1" pageWidth="850" pageHeight="1100" math="0" shadow="0"><root><mxCell id="0"/><mxCell id="1" parent="0"/><mxCell id="6" value="javac&lt;br&gt;静态编译器" style="edgeStyle=orthogonalEdgeStyle;rounded=0;orthogonalLoop=1;jettySize=auto;html=1;" parent="1" source="2" target="5" edge="1"><mxGeometry relative="1" as="geometry"/></mxCell><mxCell id="2" value="写好的代码&lt;br&gt;HelloWorld.java" style="rounded=0;whiteSpace=wrap;html=1;" parent="1" vertex="1"><mxGeometry x="20" y="160" width="120" height="60" as="geometry"/></mxCell><mxCell id="8" value="JIT&lt;br&gt;动态编译器" style="edgeStyle=orthogonalEdgeStyle;rounded=0;orthogonalLoop=1;jettySize=auto;html=1;" parent="1" source="5" target="7" edge="1"><mxGeometry relative="1" as="geometry"/></mxCell><mxCell id="5" value="字节码&lt;br&gt;HelloWorld.class" style="whiteSpace=wrap;html=1;rounded=0;" parent="1" vertex="1"><mxGeometry x="245" y="160" width="120" height="60" as="geometry"/></mxCell><mxCell id="10" value="指令" style="edgeStyle=orthogonalEdgeStyle;rounded=0;orthogonalLoop=1;jettySize=auto;html=1;" parent="1" source="7" target="9" edge="1"><mxGeometry relative="1" as="geometry"/></mxCell><mxCell id="7" value="操作系统&lt;br&gt;支持的字节码" style="whiteSpace=wrap;html=1;rounded=0;" parent="1" vertex="1"><mxGeometry x="470" y="160" width="120" height="60" as="geometry"/></mxCell><mxCell id="12" value="" style="edgeStyle=orthogonalEdgeStyle;rounded=0;orthogonalLoop=1;jettySize=auto;html=1;" parent="1" source="9" target="11" edge="1"><mxGeometry relative="1" as="geometry"/></mxCell><mxCell id="9" value="处理器" style="whiteSpace=wrap;html=1;rounded=0;" parent="1" vertex="1"><mxGeometry x="470" y="307" width="120" height="60" as="geometry"/></mxCell><mxCell id="17" style="edgeStyle=orthogonalEdgeStyle;rounded=0;orthogonalLoop=1;jettySize=auto;html=1;exitX=0;exitY=0.5;exitDx=0;exitDy=0;entryX=1;entryY=0.5;entryDx=0;entryDy=0;" parent="1" source="11" target="13" edge="1"><mxGeometry relative="1" as="geometry"/></mxCell><mxCell id="11" value="指令" style="whiteSpace=wrap;html=1;rounded=0;" parent="1" vertex="1"><mxGeometry x="390" y="324.5" width="40" height="25" as="geometry"/></mxCell><mxCell id="18" style="edgeStyle=orthogonalEdgeStyle;rounded=0;orthogonalLoop=1;jettySize=auto;html=1;exitX=0;exitY=0.5;exitDx=0;exitDy=0;entryX=1;entryY=0.5;entryDx=0;entryDy=0;" parent="1" source="13" target="15" edge="1"><mxGeometry relative="1" as="geometry"/></mxCell><mxCell id="13" value="指令" style="whiteSpace=wrap;html=1;rounded=0;" parent="1" vertex="1"><mxGeometry x="340" y="324.5" width="40" height="25" as="geometry"/></mxCell><mxCell id="19" style="edgeStyle=orthogonalEdgeStyle;rounded=0;orthogonalLoop=1;jettySize=auto;html=1;exitX=0;exitY=0.5;exitDx=0;exitDy=0;entryX=1;entryY=0.5;entryDx=0;entryDy=0;" parent="1" source="15" target="16" edge="1"><mxGeometry relative="1" as="geometry"/></mxCell><mxCell id="15" value="指令" style="whiteSpace=wrap;html=1;rounded=0;" parent="1" vertex="1"><mxGeometry x="290" y="324.5" width="40" height="25" as="geometry"/></mxCell><mxCell id="25" value="" style="edgeStyle=orthogonalEdgeStyle;rounded=0;orthogonalLoop=1;jettySize=auto;html=1;entryX=1;entryY=0.5;entryDx=0;entryDy=0;" parent="1" source="16" target="20" edge="1"><mxGeometry relative="1" as="geometry"/></mxCell><mxCell id="16" value="指令" style="whiteSpace=wrap;html=1;rounded=0;" parent="1" vertex="1"><mxGeometry x="240" y="324.5" width="40" height="25" as="geometry"/></mxCell><mxCell id="20" value="" style="rounded=0;whiteSpace=wrap;html=1;" parent="1" vertex="1"><mxGeometry x="80" y="266" width="130" height="142" as="geometry"/></mxCell><mxCell id="21" value="硬件组件" style="text;html=1;strokeColor=none;fillColor=none;align=center;verticalAlign=middle;whiteSpace=wrap;rounded=0;" parent="1" vertex="1"><mxGeometry x="117.5" y="265" width="55" height="22" as="geometry"/></mxCell><mxCell id="22" value="写缓冲器" style="rounded=0;whiteSpace=wrap;html=1;" parent="1" vertex="1"><mxGeometry x="100" y="292" width="90" height="30" as="geometry"/></mxCell><mxCell id="23" value="高速缓存" style="rounded=0;whiteSpace=wrap;html=1;" parent="1" vertex="1"><mxGeometry x="100" y="333" width="90" height="30" as="geometry"/></mxCell><mxCell id="24" value="无效队列" style="rounded=0;whiteSpace=wrap;html=1;" parent="1" vertex="1"><mxGeometry x="100" y="373" width="90" height="30" as="geometry"/></mxCell><mxCell id="26" value="指令重排的几个地方" style="text;html=1;strokeColor=none;fillColor=none;align=center;verticalAlign=middle;whiteSpace=wrap;rounded=0;fontSize=16;" parent="1" vertex="1"><mxGeometry x="20" y="40" width="240" height="30" as="geometry"/></mxCell></root></mxGraphModel></diagram></mxfile>